<svg width="48" height="48" viewBox="0 0 48 48" fill="none" xmlns="http://www.w3.org/2000/svg">
  <rect width="48" height="48" rx="12" fill="#FF007A"/>
  <path d="M26.3498 17.3389L15.3467 28.3428C15.2913 28.3983 15.2513 28.4684 15.2323 28.5438L14.0127 33.439C13.9762 33.5863 14.0195 33.7431 14.1271 33.8506C14.2084 33.932 14.3193 33.977 14.4327 33.977C14.4675 33.977 14.503 33.9727 14.5376 33.964L19.4328 32.7443C19.5091 32.7252 19.5784 32.6854 19.6337 32.63L30.6378 21.6269L26.3498 17.3389Z" fill="white"/>
  <path d="M33.3639 15.8385L32.139 14.6137C31.3204 13.795 29.8937 13.7958 29.076 14.6137L27.5757 16.114L31.8635 20.4019L33.3639 18.9015C33.7728 18.4928 33.998 17.9487 33.998 17.3701C33.998 16.7915 33.7728 16.2474 33.3639 15.8385Z" fill="white"/>
</svg>
