<svg width="94" height="28" viewBox="0 0 94 28" fill="none" xmlns="http://www.w3.org/2000/svg">
  <path d="M48.2484 0.994925C48.2484 0.454823 47.63 0.426396 47.1802 0.426396H45.2686C44.7626 0.426396 44.2004 0.454823 44.2004 0.994925C44.2004 1.19391 44.2847 1.33604 44.5377 1.33604C44.9875 1.33604 45.4373 1.53503 45.4373 2.81421V14.5827C45.4373 17.6812 43.8911 19.5858 40.6864 19.5858C36.5541 19.5858 35.8794 16.8 35.8794 13.5025V2.81421C35.8794 1.53503 36.3573 1.33604 36.7227 1.33604C37.0601 1.33604 37.1444 1.19391 37.1444 0.994925C37.1444 0.454823 36.4978 0.426396 36.048 0.426396H33.1245C32.6185 0.426396 32 0.454823 32 0.994925C32 1.19391 32.0843 1.33604 32.3936 1.33604C32.7871 1.33604 33.265 1.53503 33.265 2.81421V14.7249C33.265 19.5858 36.6946 20.9218 40.4053 20.9218C43.4414 20.9218 47.0115 19.3015 47.0115 14.5827V2.81421C47.0115 1.53503 47.4894 1.33604 47.883 1.33604C48.1641 1.33604 48.2484 1.19391 48.2484 0.994925Z" fill="#E7347A"/>
  <path d="M53.9581 8.1868C53.9581 7.33401 53.8738 6.87919 53.3115 6.87919H51.4843C51.0626 6.87919 50.4442 7.02132 50.4442 7.56142C50.4442 7.76041 50.5285 7.95939 50.8096 7.95939C51.2594 7.95939 51.5967 8.01624 51.5967 9.35228V18.2497C51.5967 19.6142 51.2032 19.6142 50.8096 19.6142C50.5285 19.6142 50.4442 19.8416 50.4442 19.9838C50.4442 20.5523 51.0626 20.6944 51.4843 20.6944H54.0424C54.6047 20.6944 55.0826 20.5523 55.0826 19.9838C55.0826 19.8416 54.9982 19.6142 54.689 19.6142C54.2954 19.6142 53.93 19.6142 53.93 18.2497V13.4457C53.93 10.7736 55.4199 8.24366 57.7532 8.24366C59.9458 8.24366 60.0021 10.2335 60.0021 11.9959V18.2497C60.0021 19.6142 59.6085 19.6142 59.2149 19.6142C58.9338 19.6142 58.8495 19.8416 58.8495 19.9838C58.8495 20.5523 59.4961 20.6944 59.8896 20.6944H62.4478C63.01 20.6944 63.4879 20.5523 63.4879 19.9838C63.4879 19.8416 63.4036 19.6142 63.0943 19.6142C62.7008 19.6142 62.3353 19.6142 62.3353 18.2497V10.7736C62.3353 7.6467 61.4076 6.42437 58.7652 6.42437C57.1066 6.42437 55.0545 7.70355 53.93 9.72183C53.9581 9.26701 53.9581 8.84061 53.9581 8.1868Z" fill="#E7347A"/>
  <path d="M69.2244 3.15533C69.2244 2.33096 68.4935 1.62031 67.6501 1.62031C66.863 1.62031 66.1321 2.33096 66.1321 3.15533C66.1321 3.95127 66.863 4.69036 67.6501 4.69036C68.4935 4.69036 69.2244 3.95127 69.2244 3.15533ZM70.2364 19.9838C70.2364 19.8416 70.1521 19.6142 69.8147 19.6142C69.4493 19.6142 69.0838 19.6142 69.0838 18.2497V9.35228C69.0838 9.09645 69.1119 8.38579 69.1119 7.90254C69.1119 7.36244 68.9995 6.87919 68.4373 6.87919H66.6381C66.2164 6.87919 65.598 7.02132 65.598 7.56142C65.598 7.76041 65.6823 7.95939 65.9634 7.95939C66.5538 7.95939 66.7506 8.21523 66.7506 9.35228V18.2497C66.7506 19.6142 66.3289 19.6142 65.9634 19.6142C65.6542 19.6142 65.598 19.8416 65.598 19.9838C65.598 20.5523 66.2164 20.6944 66.6381 20.6944H69.1682C69.7304 20.6944 70.2364 20.5523 70.2364 19.9838Z" fill="#E7347A"/>
  <path d="M81.0365 1.25076C81.0365 0.113706 80.3337 0 79.7152 0C77.2695 0 76.0888 0.881219 75.6672 1.19391C74.8519 1.933 73.9524 3.0132 73.9524 6.0264V6.87919H73.1653C72.2376 6.87919 72.0408 7.41929 72.0408 7.76041C72.0408 8.0731 72.2657 8.15838 72.603 8.15838H73.9524V18.2497C73.9524 19.6142 73.5307 19.6142 73.1653 19.6142C72.7998 19.6142 72.7717 19.8416 72.7717 19.9838C72.7717 20.5523 73.3901 20.6944 73.8399 20.6944H76.4262C76.9603 20.6944 77.4663 20.5523 77.4663 19.9838C77.4663 19.8416 77.4101 19.6142 77.1008 19.6142C76.7073 19.6142 76.2856 19.6142 76.2856 18.2497V8.15838H78.9843C79.6309 8.15838 80.2212 7.67513 80.2212 7.13503C80.2212 6.87919 80.0526 6.87919 79.6871 6.87919H76.2856V5.31574C76.2856 2.38782 76.5667 1.30761 78.0848 1.30761C79.1811 1.30761 79.6309 2.75736 80.2493 2.75736C80.6991 2.75736 81.0365 2.18883 81.0365 1.25076Z" fill="#E7347A"/>
  <path d="M94 7.47614C94 6.90762 93.4378 6.87919 92.9599 6.87919H91.0764C90.5704 6.87919 90.0644 7.02132 90.0644 7.56142C90.0644 7.76041 90.1206 7.93096 90.458 7.93096C90.7953 7.93096 91.0202 8.12995 91.0202 8.52792C91.0202 8.78376 90.7391 9.97767 90.5142 10.8589L88.2653 19.1594L85.0043 10.0914C84.7794 9.49442 84.6108 8.84061 84.6108 8.52792C84.6108 7.93096 84.9481 7.93096 85.1168 7.93096C85.4541 7.93096 85.5103 7.76041 85.5103 7.56142C85.5103 7.02132 85.0043 6.87919 84.4983 6.87919H81.7153C81.2655 6.87919 80.6752 7.02132 80.6752 7.56142C80.6752 7.76041 80.7314 7.93096 81.0125 7.93096C81.6591 7.93096 81.8559 8.24366 82.5305 10.0345L86.2412 20.0975C86.5505 20.8934 86.8597 21.7178 86.8597 22.5137C86.8597 23.6508 86.2412 24.9868 85.2855 24.9868C84.7232 24.9868 84.4702 24.9015 84.1329 24.9015C83.4863 24.9015 83.0365 25.3279 83.0365 26.4081C83.0365 27.5452 83.4301 28 84.3578 28C86.2412 28 87.7311 24.6741 89.1648 20.0975L92.5663 9.32386C92.988 7.98782 93.2691 7.93096 93.6627 7.93096C93.8876 7.93096 94 7.73198 94 7.47614Z" fill="#E7347A"/>
  <g clip-path="url(#clip0)">
    <path d="M0.916667 22H4.58333C5.08933 22 5.5 21.5893 5.5 21.0833V0.916667C5.5 0.410667 5.08933 0 4.58333 0H0.916667C0.410667 0 0 0.410667 0 0.916667V21.0833C0 21.5893 0.410667 22 0.916667 22Z" fill="#E7347A"/>
    <path d="M9.16667 22H12.8333C13.3393 22 13.75 21.5893 13.75 21.0833V0.916667C13.75 0.410667 13.3393 0 12.8333 0H9.16667C8.66067 0 8.25 0.410667 8.25 0.916667V21.0833C8.25 21.5893 8.66067 22 9.16667 22Z" fill="#E7347A"/>
    <path d="M21.0833 0H17.4167C16.9107 0 16.5 0.410667 16.5 0.916667V21.0833C16.5 21.5893 16.9107 22 17.4167 22H21.0833C21.5893 22 22 21.5893 22 21.0833V0.916667C22 0.410667 21.5893 0 21.0833 0Z" fill="#E7347A"/>
  </g>
  <defs>
    <clipPath id="clip0">
      <rect width="22" height="22" fill="white"/>
    </clipPath>
  </defs>
</svg>
