<svg width="22" height="22" viewBox="0 0 22 22" fill="none" xmlns="http://www.w3.org/2000/svg">
  <g clip-path="url(#clip0)">
    <path d="M0.916667 22H4.58333C5.08933 22 5.5 21.5893 5.5 21.0833V0.916667C5.5 0.410667 5.08933 0 4.58333 0H0.916667C0.410667 0 0 0.410667 0 0.916667V21.0833C0 21.5893 0.410667 22 0.916667 22Z" fill="#E7347A"/>
    <path d="M9.16667 22H12.8333C13.3393 22 13.75 21.5893 13.75 21.0833V0.916667C13.75 0.410667 13.3393 0 12.8333 0H9.16667C8.66067 0 8.25 0.410667 8.25 0.916667V21.0833C8.25 21.5893 8.66067 22 9.16667 22Z" fill="#E7347A"/>
    <path d="M21.0833 0H17.4167C16.9107 0 16.5 0.410667 16.5 0.916667V21.0833C16.5 21.5893 16.9107 22 17.4167 22H21.0833C21.5893 22 22 21.5893 22 21.0833V0.916667C22 0.410667 21.5893 0 21.0833 0Z" fill="#E7347A"/>
  </g>
  <defs>
    <clipPath id="clip0">
    <rect width="22" height="22" fill="white"/>
    </clipPath>
  </defs>
</svg>
