<svg data-name="Layer 1" xmlns="http://www.w3.org/2000/svg" viewBox="0 0 494.86 461.43"><path d="M494.8 170.29c-.12-2.49-1.91-2.38-2.62-1.14-21.3 37.72-56.43 48.28-67.35 49.92-2.19.33-1.07-1.18.15-2 8.55-5.73 20.81-19.1 21-19.27l.18-.19c48.47-53.49 15.88-112.93 1.3-129.74-.94-1.08-2.51-1.46-2.39.8.68 13.39 1.85 60.88-22.42 68.08-.74.22-1.88-.91-1.69-1.63C445.24 43.54 355.57 7.74 311.49.7c-1.3-.21-1.5 1.09-.38 1.53 48.44 19.21 97.28 101.27 52 144.18-3.57 3.26-1.83 8.37-1.79 8.53 5 20.95 17.78 77.4-17.14 107.48-7.38 6.48-16.82 12.07-28.83 16.31l-1.76.6c-2.29.77-4.74.87-.37-1.86 15-9.42 48.11-34.47 36.44-68.53-.32-.94-1.5-.76-1.74.25-8 34.47-29.94 42-50.47 45.84h-.15l-4.79.06c5.82-11.05 7.29-43.31-19.16-88.38A68.15 68.15 0 0 1 267 152c1.79-4.59 23 3.88 20.82 2.87-8.85-4-14.42-8-23.7-9.25-.41 0 .14-.39.23-.81 1.31-5.87 32.74 5.42 34.26 5.06.09-.62-38.06-14.86-47.91-12.6-.42.1-.46-.71-.05-.85 15-5.21 29.73 1.46 32 .29-32.08-15.75-51.93-4.68-61 .16-7.31 3.91-13.9 9.28-21 14.18a.43.43 0 0 1-.66-.29l-.69-3.41a.43.43 0 0 0-.33-.34 1 1 0 0 0-.43-.17.43.43 0 0 0-.71.3c-.67 10.75-8.92 15.63-14.63 22.57-6.77 8.22-7.12 27.15-1.79 33.05 2.82-9.61 6.76-16.36 12.75-17.49a.45.45 0 0 1 .4.73l-5.24 6.34a.45.45 0 0 0 .33.74 4 4 0 0 0 2.64-.94c8.85-7.16 18.74 1.73 30.63 9.7 18 12.09 16.44 44.49-11.89 53.5q-2.4.77-4.91 1.3c-23.41-1.5-54.59-15.73-59.71-48.51a.89.89 0 0 0-1.74-.27c-12 33.93 20.77 59.34 35.71 68.91 4.34 2.79 1.89 2.66-.39 1.87l-1.75-.63c-12-4.37-21.35-10.06-28.66-16.61-34.6-30.45-21.24-86.77-16-107.66 0-.16 1.84-5.25-1.7-8.55-44.77-43.4 4.94-124.93 53.59-143.61 1.12-.44.93-1.74-.37-1.54C141.06 6.59 51 41.43 74.35 133.27c.18.73-1 1.85-1.71 1.62C48.45 127.42 50.13 80 51 66.57c.14-2.26-1.44-1.9-2.39-.82-14.76 16.65-48 75.74-.09 129.74l.18.19c.15.18 12.27 13.67 20.76 19.49 1.21.83 2.31 2.35.13 2-10.91-1.76-45.92-12.7-66.82-50.64C2 165.28.24 165.15.1 167.64c-.81 14 2.47 52.59 46.33 84 .25.18 22.57 20.42 65.95 30.77 1.61.38 2.23 2.1.65 2.44-13.36 2.89-38.1-1.42-71.27-10.59-1.63-.45-3.25 1.73-2.37 3.25 42.52 73.12 133.53 86.59 152.32 88.59 2.05.21 2.12-.66.37-1.78-10.22-6.59-42.52-26.82-44.48-41.87-.09-.64.47.26 0 0-.2-.11-2.11 6.1 26.09 22.79L205 363.76l4.31 1.77c-9.92-9.46-22.54 14.23-32.92 22.26-18.6 14.38-47.24 11.85-70.63-6.09-6.49-5-12.2-10.76-18.64-16.51.29 2.2.51 4.35.87 6.51 2 12.06 5.66 23.87 13.62 35 12.49 17.42 31.31 24.08 50.85 18 13.2-4.14 23.07-11.91 32-20.67l3-2.9c-6.42 21.8-33.11 35.09-61.9 31.74 5.45 3.56 10.84 7.19 16.37 10.65 21.93 13.75 40.36 10.23 53.62-4.79 9.55-10.82 13.82-24.14 17.61-37.66l1.6-5.71c3 19.66-8 55-33.91 63.16 4.75.7 9.5 1.46 14.24 2.08 11.39 1.5 22.3 1.24 32.67-1.62 11.41-3.14 17.47-10.12 19.41-20.35a95.6 95.6 0 0 0-2.87-46.79l-2.55-8.17c10.5 13 20.57 43.8 7.79 67.12 22.44-8.12 37.31-30.26 23-69 5.39 4.91 10 17 12.88 33.47l1.22.38c1.75-7.87 13.74-37.46-2.94-48.85a.44.44 0 0 0 .25-.08c21.44-8.61 43.72-26 60.74-43.77a.52.52 0 0 1 .11-.1c0 .13-.85-.55 0 0 .06 0-.1 0-.11.1-2.13 15-33.68 35.57-44 42-1.77 1.11-1.7 2 .35 1.78 18.81-1.79 110-14.28 153.26-86.94.9-1.51-.7-3.72-2.34-3.28-33.26 8.81-58 12.85-71.38 9.82-1.57-.36-.93-2.06.68-2.43 43.49-9.88 66-29.89 66.27-30.06 44.23-30.98 47.92-69.55 47.27-83.54Zm-273.19-10.52-21.9 8.9c5.79-8.46 13-13.77 22.94-14.61-.44 2.24-1.19 4.01-1.04 5.71ZM250.56 143.38l.21.05ZM251.28 143.55h.09ZM249.64 143.17ZM250.05 143.26h-.11ZM249.77 143.2h-.1ZM252.87 143.93ZM252.94 143.94h.07ZM251.64 143.64l.37.09ZM253 144h.14ZM252 143.73l.86.2ZM253.27 144ZM253.15 144h.07ZM253.23 144ZM253.22 144Z" fill="#f04c23"/></svg>