<svg width="173" height="173" viewBox="0 0 173 173" fill="none" xmlns="http://www.w3.org/2000/svg">
<g clip-path="url(#clip0)">
<circle cx="144.498" cy="49.5" r="10.5" fill="#E7347A"/>
<circle cx="126.498" cy="26.5" r="7.5" fill="#E7347A"/>
<circle cx="144.998" cy="6" r="6" fill="#E7347A"/>
<path fill-rule="evenodd" clip-rule="evenodd" d="M13.9532 108.069C12.0692 103.138 10.0005 96.0342 10.0005 86.0342C10.0005 62.5542 23.5005 34.0541 67.1909 34.0542C101.948 34.0543 129 53.5819 129 86.0342C129 86.8732 128.993 87.7103 128.977 88.5451C128.978 88.5478 128.978 88.5508 128.978 88.5542C128.978 88.6163 128.977 88.6934 128.977 88.7841C128.96 90.802 128.886 99.5542 134.628 99.5542C137.999 99.5542 140.289 98.2423 142.778 96.8164C145.74 95.119 148.985 93.2599 154.672 93.2599C159.099 93.2599 163.123 97.2371 163.525 101.214C163.928 105.192 163.124 107.18 161.514 109.964C160.975 110.896 159.22 112.94 156.956 115.577C152.455 120.82 145.945 128.403 143 134.225C139.938 140.278 139.519 149.098 139.178 156.265C138.945 161.168 138.749 165.297 137.768 167.236C136.157 170.421 130.522 175.588 122.07 171.611C117.195 169.317 116.033 164.054 116.033 164.054C116.033 164.054 114.021 158.884 112.411 153.713C110.801 148.543 109.191 145.361 107.179 143.77C103.809 141.106 101.271 142.021 96.9023 143.597C93.9255 144.67 90.0986 146.05 84.5787 146.814C79.7133 147.625 74.3485 148.054 68.4386 148.054C46.0005 148.054 22.9985 131.744 13.9532 108.069Z" fill="#E7347A"/>
</g>
<defs>
<clipPath id="clip0">
<rect width="173" height="173" fill="white"/>
</clipPath>
</defs>
</svg>
