<svg width="154" height="174" viewBox="0 0 154 174" fill="none" xmlns="http://www.w3.org/2000/svg">
<circle cx="134.498" cy="49.5" r="10.5" fill="#FF007A"/>
<circle cx="116.498" cy="26.5" r="7.5" fill="#FF007A"/>
<circle cx="134.998" cy="6" r="6" fill="#FF007A"/>
<path fill-rule="evenodd" clip-rule="evenodd" d="M3.95325 108.069C2.06915 103.138 0.000457764 96.0342 0.000457764 86.0342C0.000457764 62.5542 13.5005 34.0541 57.1909 34.0542C91.9481 34.0543 119 53.5819 119 86.0342C119 86.8732 118.993 87.7103 118.977 88.5451C118.978 88.5478 118.978 88.5508 118.978 88.5542C118.978 88.6163 118.977 88.6934 118.977 88.7841C118.96 90.802 118.886 99.5542 124.628 99.5542C127.999 99.5542 130.289 98.2423 132.778 96.8164C135.74 95.119 138.985 93.2599 144.672 93.2599C149.099 93.2599 153.123 97.2371 153.525 101.214C153.928 105.192 153.124 107.18 151.514 109.964C150.975 110.896 149.22 112.94 146.956 115.577C142.455 120.82 135.945 128.403 133 134.225C129.938 140.278 129.519 149.098 129.178 156.265C128.945 161.168 128.749 165.297 127.768 167.236C126.157 170.421 120.522 175.588 112.07 171.611C107.195 169.317 106.033 164.054 106.033 164.054C106.033 164.054 104.021 158.884 102.411 153.713C100.801 148.543 99.1913 145.361 97.1789 143.77C93.8088 141.106 91.2713 142.021 86.9023 143.597C83.9255 144.67 80.0986 146.05 74.5787 146.814C69.7133 147.625 64.3485 148.054 58.4386 148.054C36.0005 148.054 12.9985 131.744 3.95325 108.069Z" fill="#FF007A"/>
</svg>
